<?xml version="1.0" encoding="UTF-8" standalone="no"?>
<!DOCTYPE svg PUBLIC "-//W3C//DTD SVG 1.1//EN" "http://www.w3.org/Graphics/SVG/1.1/DTD/svg11.dtd">
<svg xmlns="http://www.w3.org/2000/svg" version="1.1" viewBox="0 0 32 32">
<path fill="#ffffff" d="
  M 3.06 0.00
  Q 3.19 0.00 3.31 0.00
  Q 9.13 6.15 15.59 12.45
  C 15.82 12.68 16.20 12.68 16.43 12.45
  L 28.25 0.62
  C 28.57 0.31 29.05 0.28 29.31 0.56
  L 31.79 3.25
  L 19.48 15.64
  C 19.29 15.84 19.29 16.16 19.48 16.36
  L 31.79 28.75
  Q 30.55 30.53 28.94 32.00
  Q 28.81 32.00 28.69 32.00
  Q 22.71 25.61 16.36 19.59
  C 16.16 19.40 15.84 19.40 15.64 19.59
  Q 9.31 25.69 3.19 32.00
  Q 3.06 32.00 2.94 32.00
  Q 1.64 30.65 0.54 29.15
  C 0.37 28.92 0.39 28.59 0.60 28.38
  L 12.51 16.36
  C 12.71 16.16 12.71 15.84 12.52 15.64
  L 0.61 3.73
  C 0.26 3.38 0.27 2.82 0.62 2.48
  Q 2.10 1.07 3.06 0.00
  Z"
/>
</svg>
