<?xml version="1.0" encoding="UTF-8" standalone="no"?>
<!DOCTYPE svg PUBLIC "-//W3C//DTD SVG 1.1//EN" "http://www.w3.org/Graphics/SVG/1.1/DTD/svg11.dtd">
<svg xmlns="http://www.w3.org/2000/svg" version="1.1" viewBox="0 0 142 33">
<path fill="#f1f0f3" fill-opacity="0.973" d="
  M 111.81 0.69
  Q 113.96 2.16 112.07 5.40
  C 111.87 5.76 111.88 6.20 112.10 6.54
  Q 112.43 7.06 112.99 7.98
  Q 113.23 8.38 113.18 8.71
  Q 113.09 9.28 112.49 8.96
  C 112.26 8.85 112.05 8.57 111.92 8.20
  Q 111.29 6.41 109.32 5.37
  C 108.84 5.11 108.25 5.47 108.25 6.02
  Q 108.25 9.26 107.34 8.60
  C 107.11 8.43 106.97 8.11 106.98 7.75
  L 107.15 1.19
  C 107.16 0.88 107.36 0.60 107.66 0.49
  Q 110.11 -0.48 111.81 0.69
  Z
  M 110.31 1.20
  Q 109.44 1.04 108.67 1.46
  C 108.40 1.62 108.20 1.90 108.13 2.23
  Q 107.87 3.59 108.54 4.19
  Q 109.07 4.65 110.18 4.48
  Q 112.67 4.10 111.51 2.09
  Q 111.07 1.34 110.31 1.20
  Z"
/>
<path fill="#f1f0f3" fill-opacity="0.973" d="
  M 134.51 2.45
  Q 134.66 1.64 134.84 2.53
  Q 135.41 5.33 135.23 8.19
  C 135.21 8.49 134.95 8.71 134.70 8.63
  Q 134.06 8.44 134.14 7.55
  Q 134.23 6.67 134.22 6.43
  Q 134.16 4.42 134.51 2.45
  Z"
/>
<path fill="#f1f0f3" fill-opacity="0.973" d="
  M 118.25 8.25
  Q 115.92 10.31 115.00 7.50
  Q 114.31 5.39 114.93 2.80
  Q 115.07 2.23 115.45 2.62
  Q 116.10 3.30 115.80 4.51
  Q 114.97 7.93 118.25 8.25
  Z"
/>
<path fill="#f1f0f3" fill-opacity="0.973" d="
  M 118.25 8.25
  Q 118.97 5.87 118.83 3.39
  Q 118.81 3.00 118.92 2.75
  Q 119.18 2.13 119.58 2.54
  Q 119.75 2.71 119.79 3.03
  Q 120.17 5.60 119.98 8.20
  C 119.96 8.50 119.71 8.74 119.43 8.72
  Q 118.80 8.68 118.25 8.25
  Z"
/>
<path fill="#f1f0f3" fill-opacity="0.973" d="
  M 125.07 7.45
  Q 125.25 6.29 124.01 6.06
  Q 122.83 5.84 122.55 5.69
  Q 120.29 4.51 122.50 2.75
  Q 124.25 1.35 125.70 3.10
  C 125.91 3.36 125.88 3.72 125.63 3.84
  Q 125.25 4.04 124.82 3.63
  C 124.54 3.36 124.24 3.22 124.00 3.23
  Q 122.85 3.29 122.97 4.44
  C 123.00 4.71 123.25 4.93 123.56 4.96
  Q 125.21 5.10 126.21 6.34
  C 126.41 6.59 126.47 6.92 126.36 7.22
  Q 125.39 9.99 122.31 8.69
  Q 121.53 8.36 121.60 7.72
  C 121.62 7.48 121.92 7.36 122.19 7.48
  Q 123.27 7.97 124.44 7.96
  C 124.75 7.96 125.02 7.74 125.07 7.45
  Z"
/>
<path fill="#f1f0f3" fill-opacity="0.973" d="
  M 129.75 3.32
  Q 128.18 4.33 130.22 4.95
  Q 134.00 6.10 131.95 8.25
  Q 131.17 9.08 130.17 9.08
  Q 129.02 9.08 128.16 8.30
  C 127.88 8.04 127.78 7.69 127.92 7.46
  Q 128.14 7.09 128.88 7.59
  C 129.32 7.89 129.85 8.03 130.39 7.99
  Q 132.42 7.83 131.07 6.62
  C 130.88 6.45 130.57 6.33 130.19 6.27
  Q 129.00 6.08 128.28 5.16
  C 128.09 4.92 128.03 4.59 128.12 4.27
  Q 129.08 0.72 132.12 3.17
  Q 132.58 3.55 132.04 3.70
  Q 131.29 3.92 130.56 3.38
  C 130.30 3.19 129.98 3.17 129.75 3.32
  Z"
/>
<path fill="#f1f0f3" fill-opacity="0.973" d="
  M 142.00 4.56
  Q 142.00 6.44 142.00 8.31
  Q 140.33 8.91 138.57 8.94
  C 138.25 8.95 137.95 8.80 137.75 8.55
  Q 135.27 5.27 139.82 5.08
  C 140.14 5.06 140.41 4.88 140.53 4.61
  Q 141.37 2.57 138.56 3.66
  Q 136.40 4.50 137.43 3.03
  Q 137.68 2.67 138.09 2.53
  Q 141.01 1.49 142.00 4.56
  Z
  M 140.73 7.10
  C 140.89 6.53 140.46 5.98 139.87 5.99
  Q 138.11 6.03 138.10 7.06
  C 138.10 7.36 138.30 7.65 138.61 7.83
  Q 140.26 8.74 140.73 7.10
  Z"
/>
<path fill="#ffffff" d="
  M 0.00 6.69
  Q 2.16 6.66 4.31 6.88
  C 4.63 6.92 4.89 7.11 5.01 7.39
  L 12.78 26.19
  Q 13.22 27.26 13.66 26.20
  L 21.62 7.27
  C 21.74 6.98 22.01 6.79 22.31 6.79
  L 25.99 6.76
  C 26.27 6.75 26.50 6.99 26.50 7.28
  L 26.56 31.81
  C 26.56 32.12 26.37 32.39 26.09 32.47
  Q 24.71 32.87 23.30 32.56
  C 23.01 32.50 22.81 32.24 22.81 31.93
  Q 22.71 23.59 22.79 15.25
  Q 22.80 14.77 22.58 14.66
  C 22.41 14.57 22.16 14.76 22.03 15.06
  Q 18.82 22.88 15.67 30.72
  Q 15.05 32.28 14.09 32.65
  Q 13.05 33.05 12.01 32.38
  Q 11.33 31.94 10.89 30.83
  Q 7.69 22.56 4.51 15.08
  Q 3.75 13.28 3.75 15.23
  Q 3.75 23.25 3.84 31.25
  Q 3.86 33.39 1.96 32.69
  C 1.74 32.61 1.41 32.61 1.04 32.69
  Q 0.52 32.80 0.00 32.44
  Q 0.00 19.56 0.00 6.69
  Z"
/>
<path fill="#ffffff" d="
  M 74.35 12.71
  Q 74.77 11.22 74.30 9.66
  C 74.18 9.24 74.43 8.81 74.85 8.71
  Q 79.01 7.74 78.26 11.00
  Q 77.59 13.91 80.87 13.17
  C 81.52 13.02 82.17 13.43 82.33 14.08
  Q 83.01 17.01 79.49 16.19
  C 78.86 16.04 78.25 16.52 78.25 17.17
  Q 78.25 22.63 78.36 27.25
  Q 78.42 29.95 80.98 29.54
  C 81.43 29.47 81.88 29.73 82.04 30.16
  Q 82.99 32.75 81.29 32.86
  Q 81.00 32.88 79.20 32.71
  Q 74.29 32.25 74.49 26.75
  Q 74.63 22.87 74.37 19.01
  Q 74.36 18.87 74.44 17.39
  Q 74.54 15.61 72.28 16.28
  C 72.00 16.36 71.72 16.23 71.62 15.97
  Q 70.47 12.93 73.69 13.14
  C 74.00 13.16 74.27 12.98 74.35 12.71
  Z"
/>
<path fill="#ffffff" d="
  M 42.69 33.00
  Q 41.06 33.00 39.44 33.00
  Q 32.62 31.45 31.94 24.31
  Q 31.32 17.89 35.40 14.88
  Q 39.34 11.98 43.97 13.55
  Q 49.22 15.34 49.52 22.75
  C 49.55 23.43 49.00 24.00 48.31 24.00
  L 36.40 24.00
  C 35.87 24.00 35.47 24.50 35.58 25.02
  Q 36.82 30.70 42.94 29.69
  Q 44.35 29.45 45.49 27.67
  C 45.67 27.40 45.96 27.26 46.25 27.31
  L 48.70 27.71
  C 48.96 27.75 49.11 28.03 49.01 28.27
  Q 47.32 32.34 42.69 33.00
  Z
  M 42.19 16.46
  Q 37.51 15.20 35.75 20.26
  C 35.58 20.74 35.94 21.25 36.45 21.25
  L 45.26 21.25
  C 45.54 21.25 45.76 21.02 45.75 20.74
  Q 45.69 19.01 44.68 17.86
  Q 43.83 16.90 42.19 16.46
  Z"
/>
<path fill="#ffffff" d="
  M 62.19 33.00
  Q 60.69 33.00 59.19 33.00
  Q 54.81 32.39 53.18 28.47
  C 53.07 28.19 53.16 27.88 53.41 27.73
  Q 55.88 26.24 57.32 28.50
  Q 57.62 28.98 58.00 29.19
  Q 61.71 31.20 64.59 28.31
  C 64.83 28.07 64.96 27.75 64.95 27.43
  Q 64.88 25.39 63.00 25.00
  Q 60.12 24.39 58.14 23.79
  Q 55.30 22.92 54.15 21.10
  Q 52.73 18.84 54.12 16.41
  Q 55.13 14.63 57.37 13.67
  Q 63.29 11.13 67.83 16.41
  Q 69.42 18.26 65.75 18.25
  C 65.42 18.25 65.09 18.13 64.85 17.90
  Q 61.52 14.92 58.67 16.67
  Q 57.62 17.31 57.43 18.30
  Q 57.24 19.27 57.92 19.96
  Q 58.34 20.38 59.35 20.64
  Q 64.59 21.96 65.94 22.56
  Q 69.41 24.11 68.86 27.51
  Q 68.49 29.82 66.55 31.28
  Q 64.69 32.68 62.19 33.00
  Z"
/>
<path fill="#ffffff" d="
  M 95.94 33.00
  Q 94.56 33.00 93.19 33.00
  Q 84.25 30.60 85.69 20.94
  Q 86.45 15.78 90.31 13.95
  Q 93.82 12.28 97.78 13.55
  Q 102.80 15.17 103.55 21.49
  Q 104.65 30.68 95.94 33.00
  Z
  M 94.5621 29.9100
  C 97.51 29.90 99.90 26.80 99.8900 22.9707
  C 99.88 19.14 97.49 16.04 94.5379 16.0500
  C 91.59 16.06 89.20 19.16 89.2100 22.9893
  C 89.22 26.82 91.61 29.92 94.5621 29.9100
  Z"
/>
</svg>
