<?xml version="1.0" encoding="UTF-8" standalone="no"?>
<!DOCTYPE svg PUBLIC "-//W3C//DTD SVG 1.1//EN" "http://www.w3.org/Graphics/SVG/1.1/DTD/svg11.dtd">
<svg xmlns="http://www.w3.org/2000/svg" version="1.1" viewBox="0 0 22 22">
<path fill="#fefefe" d="
  M 9.81 0.00
  Q 10.94 0.00 12.06 0.00
  Q 12.33 4.59 12.32 9.20
  C 12.31 9.47 12.54 9.69 12.81 9.68
  Q 17.42 9.59 22.00 10.06
  Q 22.00 11.19 22.00 12.31
  Q 17.50 12.20 12.80 12.25
  C 12.46 12.26 12.20 12.54 12.22 12.87
  Q 12.48 17.77 11.94 22.00
  Q 10.94 22.00 9.94 22.00
  Q 9.61 18.26 9.79 13.50
  C 9.82 12.75 9.19 12.14 8.44 12.19
  Q 3.73 12.48 0.00 11.94
  Q 0.00 10.81 0.00 9.69
  Q 4.25 9.80 9.21 9.74
  C 9.51 9.74 9.76 9.49 9.75 9.19
  Q 9.70 4.50 9.81 0.00
  Z"
/>
</svg>
